<svg width="30" height="30" viewBox="0 0 30 30" fill="none" xmlns="http://www.w3.org/2000/svg">
<path d="M30 15.0005C30 22.4768 24.3843 28.6577 17.089 29.6607C16.4068 29.754 15.7089 29.8028 15.0005 29.8028C14.1828 29.8028 13.3798 29.7384 12.5978 29.614C5.45493 28.4793 0 22.3679 0 15.0005C0 6.82513 6.71618 0.197266 14.9995 0.197266C23.2828 0.197266 30 6.82513 30 15.0005Z" fill="#1877F2"/>
<path d="M17.0883 12.0827V15.3074H21.1306L20.4906 19.6513H17.0883V29.6595C16.4062 29.7528 15.7083 29.8016 14.9999 29.8016C14.1822 29.8016 13.3792 29.7373 12.5972 29.6128V19.6513H8.86914V15.3074H12.5972V11.3618C12.5972 8.91396 14.6079 6.92871 17.0894 6.92871V6.93079C17.0967 6.93079 17.103 6.92871 17.1104 6.92871H21.1317V10.6855H18.5041C17.7232 10.6855 17.0894 11.311 17.0894 12.0816L17.0883 12.0827Z" fill="white"/>
</svg>
