<svg width="30" height="30" viewBox="0 0 30 30" fill="none" xmlns="http://www.w3.org/2000/svg">
<path d="M15.0342 0.299805H14.9658C6.70044 0.299805 0 6.86623 0 14.9663L0 15.0333C0 23.1334 6.70044 29.6998 14.9658 29.6998H15.0342C23.2996 29.6998 30 23.1334 30 15.0333V14.9663C30 6.86623 23.2996 0.299805 15.0342 0.299805Z" fill="url(#paint0_linear_1041_6413)"/>
<path d="M19.4954 6.2998L10.5046 6.2998C8.0207 6.2998 6 8.33991 6 10.8476L6 19.152C6 21.6597 8.0207 23.6998 10.5046 23.6998H19.4954C21.9793 23.6998 24 21.6597 24 19.152V10.8476C24 8.33991 21.9793 6.2998 19.4954 6.2998ZM7.58908 10.8476C7.58908 9.22481 8.89718 7.90414 10.5046 7.90414L19.4954 7.90414C21.1028 7.90414 22.4109 9.22481 22.4109 10.8476V19.152C22.4109 20.7748 21.1028 22.0955 19.4954 22.0955H10.5046C8.89718 22.0955 7.58908 20.7748 7.58908 19.152L7.58908 10.8476Z" fill="white"/>
<path d="M14.6992 19.5C17.1799 19.5 19.1992 17.4818 19.1992 15C19.1992 12.5182 17.181 10.5 14.6992 10.5C12.2174 10.5 10.1992 12.5182 10.1992 15C10.1992 17.4818 12.2174 19.5 14.6992 19.5ZM14.6992 12.2077C16.2397 12.2077 17.4926 13.4606 17.4926 15.0011C17.4926 16.5415 16.2397 17.7945 14.6992 17.7945C13.1588 17.7945 11.9059 16.5415 11.9059 15.0011C11.9059 13.4606 13.1588 12.2077 14.6992 12.2077Z" fill="white"/>
<defs>
<linearGradient id="paint0_linear_1041_6413" x1="4.38286" y1="25.4046" x2="25.1882" y2="4.17569" gradientUnits="userSpaceOnUse">
<stop stop-color="#FAAD4F"/>
<stop offset="0.35" stop-color="#DD2A7B"/>
<stop offset="0.62" stop-color="#9537B0"/>
<stop offset="1" stop-color="#515BD4"/>
</linearGradient>
</defs>
</svg>
