<svg width="30" height="30" viewBox="0 0 30 30" fill="none" xmlns="http://www.w3.org/2000/svg">
<path d="M15.0342 0.197266H14.9658C6.70045 0.197266 0 6.80959 0 14.9663L0 15.0337C0 23.1904 6.70045 29.8027 14.9658 29.8027H15.0342C23.2996 29.8027 30 23.1904 30 15.0337V14.9663C30 6.80959 23.2996 0.197266 15.0342 0.197266Z" fill="#007EBB"/>
<path d="M7.15423 10.0378C6.75903 9.67578 6.5625 9.22769 6.5625 8.69456C6.5625 8.16143 6.76008 7.69364 7.15423 7.33061C7.54942 6.96862 8.05813 6.78711 8.6814 6.78711C9.30467 6.78711 9.79341 6.96862 10.1876 7.33061C10.5827 7.6926 10.7793 8.14795 10.7793 8.69456C10.7793 9.24118 10.5817 9.67578 10.1876 10.0378C9.79236 10.3998 9.291 10.5813 8.6814 10.5813C8.07179 10.5813 7.54942 10.3998 7.15423 10.0378ZM10.4472 12.1143V23.2126H6.89357V12.1143H10.4472Z" fill="#FEFFFC"/>
<path d="M22.2766 13.2105C23.0512 14.0403 23.438 15.1791 23.438 16.6292V23.0164H20.0631V17.0793C20.0631 16.3481 19.8708 15.7797 19.4871 15.3752C19.1035 14.9707 18.5864 14.7674 17.939 14.7674C17.2915 14.7674 16.7744 14.9696 16.3907 15.3752C16.0071 15.7797 15.8148 16.3481 15.8148 17.0793V23.0164H12.4199V12.083H15.8148V13.5331C16.1585 13.0497 16.622 12.668 17.2043 12.3869C17.7866 12.1058 18.4414 11.9658 19.1697 11.9658C20.4667 11.9658 21.503 12.3807 22.2766 13.2105Z" fill="#FEFFFC"/>
</svg>
