<svg width="30" height="30" viewBox="0 0 30 30" fill="none" xmlns="http://www.w3.org/2000/svg">
<path d="M29.9979 15.001C29.9979 22.477 24.3824 28.6576 17.0873 29.6606C16.4052 29.754 15.7073 29.8027 14.9989 29.8027C14.1813 29.8027 13.3783 29.7384 12.5963 29.6139C5.45474 28.4793 0 22.3681 0 15.001C0 6.82587 6.71595 0.198242 15 0.198242C23.2841 0.198242 30 6.82587 30 15.001H29.9979Z" fill="#1C1C1B"/>
<path d="M6.08216 6.72559L12.9999 15.8528L6.03906 23.2739H7.60612L13.7009 16.777L18.6249 23.2739H23.9567L16.65 13.6333L23.1295 6.72559H21.5625L15.9501 12.7091L11.415 6.72559H6.0832H6.08216ZM8.38596 7.86442H10.8348L21.6508 22.1351H19.2019L8.38596 7.86442Z" fill="white"/>
</svg>
