<svg width="17" height="17" viewBox="0 0 17 17" fill="none" xmlns="http://www.w3.org/2000/svg">
<path d="M14.1846 1.57676H12.7446V0.830097C12.7446 0.687875 12.7002 0.572319 12.6113 0.483431C12.5224 0.394542 12.4069 0.350098 12.2646 0.350098C12.1224 0.350098 12.0069 0.394542 11.918 0.483431C11.8291 0.572319 11.7846 0.687875 11.7846 0.830097V1.57676H4.74465V0.830097C4.74465 0.687875 4.7002 0.572319 4.61132 0.483431C4.52243 0.394542 4.40687 0.350098 4.26465 0.350098C4.12243 0.350098 4.00687 0.394542 3.91798 0.483431C3.82909 0.572319 3.78465 0.687875 3.78465 0.830097V1.57676H2.34465C1.77576 1.57676 1.28687 1.78121 0.877982 2.1901C0.469093 2.59899 0.264648 3.08788 0.264648 3.65676V14.2701C0.264648 14.839 0.469093 15.3279 0.877982 15.7368C1.28687 16.1457 1.77576 16.3501 2.34465 16.3501H14.1846C14.7535 16.3501 15.2424 16.1457 15.6513 15.7368C16.0602 15.3279 16.2646 14.839 16.2646 14.2701V3.65676C16.2646 3.08788 16.0602 2.59899 15.6513 2.1901C15.2424 1.78121 14.7535 1.57676 14.1846 1.57676ZM2.34465 2.5901H3.78465V3.12343C3.78465 3.2301 3.82909 3.33676 3.91798 3.44343C4.00687 3.5501 4.12243 3.60343 4.26465 3.60343C4.40687 3.60343 4.52243 3.5501 4.61132 3.44343C4.7002 3.33676 4.74465 3.2301 4.74465 3.12343V2.5901H11.7846V3.12343C11.7846 3.2301 11.8291 3.33676 11.918 3.44343C12.0069 3.5501 12.1224 3.60343 12.2646 3.60343C12.4069 3.60343 12.5224 3.5501 12.6113 3.44343C12.7002 3.33676 12.7446 3.2301 12.7446 3.12343V2.5901H14.1846C14.5046 2.5901 14.7624 2.69676 14.958 2.9101C15.1535 3.12343 15.2513 3.37232 15.2513 3.65676V4.8301H1.27798V3.65676C1.27798 3.37232 1.37576 3.12343 1.57132 2.9101C1.76687 2.69676 2.02465 2.5901 2.34465 2.5901ZM14.1846 15.3368H2.34465C2.02465 15.3368 1.76687 15.239 1.57132 15.0434C1.37576 14.8479 1.27798 14.5901 1.27798 14.2701V5.84343H15.2513V14.2701C15.2513 14.5901 15.1535 14.8479 14.958 15.0434C14.7624 15.239 14.5046 15.3368 14.1846 15.3368Z" fill="white"/>
</svg>
