<svg width="17" height="17" viewBox="0 0 17 17" fill="none" xmlns="http://www.w3.org/2000/svg">
<path d="M14.6856 1.75694H13.2456V1.01027C13.2456 0.868051 13.2012 0.752495 13.1123 0.663607C13.0234 0.574718 12.9078 0.530273 12.7656 0.530273C12.6234 0.530273 12.5078 0.574718 12.419 0.663607C12.3301 0.752495 12.2856 0.868051 12.2856 1.01027V1.75694H5.24563V1.01027C5.24563 0.868051 5.20118 0.752495 5.11229 0.663607C5.0234 0.574718 4.90785 0.530273 4.76562 0.530273C4.6234 0.530273 4.50785 0.574718 4.41896 0.663607C4.33007 0.752495 4.28562 0.868051 4.28562 1.01027V1.75694H2.84563C2.27674 1.75694 1.78785 1.96138 1.37896 2.37027C0.970069 2.77916 0.765625 3.26805 0.765625 3.83694V14.4503C0.765625 15.0192 0.970069 15.5081 1.37896 15.9169C1.78785 16.3258 2.27674 16.5303 2.84563 16.5303H14.6856C15.2545 16.5303 15.7434 16.3258 16.1523 15.9169C16.5612 15.5081 16.7656 15.0192 16.7656 14.4503V3.83694C16.7656 3.26805 16.5612 2.77916 16.1523 2.37027C15.7434 1.96138 15.2545 1.75694 14.6856 1.75694ZM2.84563 2.77027H4.28562V3.30361C4.28562 3.41027 4.33007 3.51694 4.41896 3.62361C4.50785 3.73027 4.6234 3.78361 4.76562 3.78361C4.90785 3.78361 5.0234 3.73027 5.11229 3.62361C5.20118 3.51694 5.24563 3.41027 5.24563 3.30361V2.77027H12.2856V3.30361C12.2856 3.41027 12.3301 3.51694 12.419 3.62361C12.5078 3.73027 12.6234 3.78361 12.7656 3.78361C12.9078 3.78361 13.0234 3.73027 13.1123 3.62361C13.2012 3.51694 13.2456 3.41027 13.2456 3.30361V2.77027H14.6856C15.0056 2.77027 15.2634 2.87694 15.459 3.09027C15.6545 3.30361 15.7523 3.5525 15.7523 3.83694V5.01027H1.77896V3.83694C1.77896 3.5525 1.87674 3.30361 2.07229 3.09027C2.26785 2.87694 2.52562 2.77027 2.84563 2.77027ZM14.6856 15.5169H2.84563C2.52562 15.5169 2.26785 15.4192 2.07229 15.2236C1.87674 15.0281 1.77896 14.7703 1.77896 14.4503V6.02361H15.7523V14.4503C15.7523 14.7703 15.6545 15.0281 15.459 15.2236C15.2634 15.4192 15.0056 15.5169 14.6856 15.5169Z" fill="#6D757F"/>
</svg>
