<svg width="40" height="47" viewBox="0 0 40 47" fill="none" xmlns="http://www.w3.org/2000/svg">
<g clip-path="url(#clip0_1304_7988)">
<path d="M14.5934 43.3585C14.3188 43.324 14.2158 43.3585 14.1128 43.324C7.82978 39.5259 3.57246 34.1396 1.9588 26.8888C1.5468 25.0588 1.61547 23.1598 2.09613 21.2953C3.0918 17.2901 6.42212 14.5279 10.5078 14.2862C12.6364 14.1481 14.6964 14.3898 16.5504 15.5637C16.6878 16.5651 16.7907 17.5664 16.9967 18.4986C17.3401 20.0178 18.1297 21.2608 19.5374 22.0204C20.5674 22.6074 21.5974 22.6074 22.1467 22.0549C22.8677 21.3299 22.8677 20.3631 22.4214 19.569C21.8034 18.4641 21.0481 17.4282 20.2584 16.4615C19.7434 15.84 19.0567 15.3221 18.4387 14.8041C19.0224 10.9025 22.6961 9.24519 27.0907 10.868C27.228 11.4204 27.3654 12.0074 27.537 12.5598C28.2237 14.597 29.494 16.1507 31.554 16.8758C32.3437 17.152 33.202 17.2556 33.8887 16.5305C34.4037 15.9781 34.4037 15.0113 33.8544 14.0445C32.9617 12.5253 31.6227 11.455 30.1807 10.5227C29.6657 10.212 29.1507 9.90122 28.6357 9.625C29.3224 3.58266 34.7127 -0.698766 40 1.71817C39.9657 1.26931 40 0.889505 39.8627 0.68234C39.691 0.440646 39.3133 0.302536 39.0043 0.233481C36.086 -0.318961 33.3737 0.0263143 31.142 2.16703C29.4597 3.7553 28.3267 5.68885 27.5714 7.89862C27.4684 8.20936 27.3654 8.52011 27.228 8.83086C27.228 8.86539 27.1594 8.89992 27.022 9.0035C26.713 8.96897 26.3354 8.96897 25.9577 8.89992C21.3571 8.17484 18.9537 9.41783 16.8251 13.7338C16.4131 13.5957 15.9324 13.4576 15.4861 13.2849C12.8424 12.3872 10.1988 12.3182 7.52078 13.2159C3.16046 14.666 0.345139 18.4295 0.0361404 23.1944C-0.135525 25.7839 0.310806 28.2699 1.2378 30.6869C3.5038 36.522 7.21178 41.1142 12.7738 44.1181C13.0484 44.2907 13.3574 44.4288 13.6321 44.6015C13.6664 44.636 13.7008 44.7051 13.8038 44.9122C12.6364 45.1885 11.5378 45.0849 10.4391 45.0158C9.37477 44.9813 8.27611 44.8777 7.10878 44.8087C7.21178 45.7064 7.69245 46.0516 8.27611 46.2588C8.96278 46.466 9.64944 46.7422 10.3361 46.7767C12.1901 46.8458 14.0784 46.8803 15.9667 46.7767C17.4431 46.6731 17.8551 45.879 17.2027 44.6705C15.7951 42.1155 14.3531 39.5605 12.9111 37.0054C12.6708 36.5911 12.3618 36.2458 11.9841 35.7624C11.3318 36.522 11.6064 37.0745 11.8468 37.5924C12.8081 39.4569 13.6664 41.3214 14.5934 43.3585ZM32.8587 15.4947C30.4897 15.1839 29.0134 13.6647 28.9104 11.524C30.4897 12.5598 32.0004 13.4921 32.8587 15.4947ZM21.2541 20.8465C19.2284 20.3631 18.2671 18.982 18.4731 16.8758C19.7777 17.9807 20.9107 19.0165 21.2541 20.8465Z" fill="white"/>
</g>
<defs>
<clipPath id="clip0_1304_7988">
<rect width="40" height="46.8421" fill="white" transform="matrix(-1 0 0 1 40 0)"/>
</clipPath>
</defs>
</svg>
