<svg width="30" height="30" viewBox="0 0 30 30" fill="none" xmlns="http://www.w3.org/2000/svg">
<g clipPath="url(#clip0_1304_7990)">
<path d="M15 2.5C21.9037 2.5 27.5 8.09625 27.5 15C27.5 21.9037 21.9037 27.5 15 27.5C8.09625 27.5 2.5 21.9037 2.5 15C2.5 8.09625 8.09625 2.5 15 2.5ZM15 5C12.3478 5 9.8043 6.05357 7.92893 7.92893C6.05357 9.8043 5 12.3478 5 15C5 17.6522 6.05357 20.1957 7.92893 22.0711C9.8043 23.9464 12.3478 25 15 25C17.6522 25 20.1957 23.9464 22.0711 22.0711C23.9464 20.1957 25 17.6522 25 15C25 12.3478 23.9464 9.8043 22.0711 7.92893C20.1957 6.05357 17.6522 5 15 5ZM15 8.75C15.3315 8.75 15.6495 8.8817 15.8839 9.11612C16.1183 9.35054 16.25 9.66848 16.25 10V13.75H20C20.3315 13.75 20.6495 13.8817 20.8839 14.1161C21.1183 14.3505 21.25 14.6685 21.25 15C21.25 15.3315 21.1183 15.6495 20.8839 15.8839C20.6495 16.1183 20.3315 16.25 20 16.25H16.25V20C16.25 20.3315 16.1183 20.6495 15.8839 20.8839C15.6495 21.1183 15.3315 21.25 15 21.25C14.6685 21.25 14.3505 21.1183 14.1161 20.8839C13.8817 20.6495 13.75 20.3315 13.75 20V16.25H10C9.66848 16.25 9.35054 16.1183 9.11612 15.8839C8.8817 15.6495 8.75 15.3315 8.75 15C8.75 14.6685 8.8817 14.3505 9.11612 14.1161C9.35054 13.8817 9.66848 13.75 10 13.75H13.75V10C13.75 9.66848 13.8817 9.35054 14.1161 9.11612C14.3505 8.8817 14.6685 8.75 15 8.75Z" fill="white"/>
</g>
<defs>
<clipPath id="clip0_1304_7990">
<rect width="30" height="30" fill="white"/>
</clipPath>
</defs>
</svg>
